# xmcd CD database file
# Copyright (C) 1997 Ti Kan
# 
# Track frame offsets:
#     150
#     9835
#     21305
#     32188
#     45130
#     55200
#     68975
#     80203
#     97528
#     110330
#     122030
#     131415
#     143883
#     155400
#     175060
#     188478
#     199050
#     215203
#     229225
#     245258
#     265475
#     287150
#     306675
#     319395
#     334463
# 
# Disc length: 4635 seconds
# 
# Revision: 1
# Processed by: cddbd v1.4b41PL1 Copyright (c) Steve Scherf et al.
# Submitted via: DiscPlay 4.0.4
# 
DISCID=6f121919
DTITLE=Willie Nelson - Legendary Country Singers
DYEAR=1900
DGENRE=
TTITLE0=Man with the Blues
TTITLE1=Nite Life
TTITLE2=Hello Walls
TTITLE3=Crazy
TTITLE4=Touch Me
TTITLE5=Funny How Time Slips Away
TTITLE6=The Party's Over
TTITLE7=Me and Paul
TTITLE8=Bloody Mary Morning
TTITLE9=Stay All Night (Stay a Little Longer)
TTITLE10=If You've Got the Money, I've Got the Time
TTITLE11=Whiskey River
TTITLE12=On the Road Again
TTITLE13=Georgia on My Mind
TTITLE14=Good Hearted Woman
TTITLE15=Blue Eyes Crying in the Rain
TTITLE16=Blue Skies
TTITLE17=My Heroes Have Always Been Cowboys
TTITLE18=Always on My Mind
TTITLE19=Angel Flying Too Close to the Ground
TTITLE20=Pancho and Lefty
TTITLE21=Last Thing I Needed First Thing This Morning
TTITLE22=Forgiving You Was Easy
TTITLE23=Nothing I Can Do About It Now
TTITLE24=Family Bible
EXTD=
EXTT0=
EXTT1=
EXTT2=
EXTT3=
EXTT4=
EXTT5=
EXTT6=
EXTT7=
EXTT8=
EXTT9=
EXTT10=
EXTT11=
EXTT12=
EXTT13=
EXTT14=
EXTT15=
EXTT16=
EXTT17=
EXTT18=
EXTT19=
EXTT20=
EXTT21=
EXTT22=
EXTT23=
EXTT24=
PLAYORDER=
